<?xml version="1.0" encoding="UTF-8"?>
<svg width="19px" height="21px" viewBox="0 0 19 21" version="1.1" xmlns="http://www.w3.org/2000/svg" xmlns:xlink="http://www.w3.org/1999/xlink">
    <!-- Generator: sketchtool 42 (36781) - http://www.bohemiancoding.com/sketch -->
    <title>C732EEED-DD0C-42E2-BEE6-22F7C33F00CF</title>
    <desc>Created with sketchtool.</desc>
    <defs></defs>
    <g id="Page-1" stroke="none" stroke-width="1" fill="none" fill-rule="evenodd">
        <g id="Property-page-resdiental_show-more" transform="translate(-125.000000, -1579.000000)">
            <g id="garden" transform="translate(125.000000, 1579.000000)">
                <path d="M9.5,19.875 L9.5,13.625" id="Stroke-1" stroke="#795548" stroke-width="2.083333"></path>
                <path d="M11.582,20.395 L7.418,20.395 C7.418,20.395 8.457,19.875 8.457,19.355 C8.457,18.832 10.543,18.832 10.543,19.355 C10.543,19.875 11.582,20.395 11.582,20.395 L11.582,20.395 Z" id="Fill-2" fill="#795548"></path>
                <path d="M11.062,2.949 C11.062,4.242 10.012,5.293 8.719,5.293 C7.426,5.293 6.375,4.242 6.375,2.949 C6.375,1.652 7.426,0.605 8.719,0.605 C10.012,0.605 11.062,1.652 11.062,2.949 L11.062,2.949 Z" id="Fill-3" fill="#8BC34A"></path>
                <path d="M14.707,12.582 C14.707,14.023 13.543,15.188 12.105,15.188 C10.664,15.188 9.5,14.023 9.5,12.582 C9.5,11.145 10.664,9.98 12.105,9.98 C13.543,9.98 14.707,11.145 14.707,12.582 L14.707,12.582 Z" id="Fill-4" fill="#8BC34A"></path>
                <path d="M17.832,13.105 C17.832,14.254 16.902,15.188 15.75,15.188 C14.598,15.188 13.668,14.254 13.668,13.105 C13.668,11.953 14.598,11.02 15.75,11.02 C16.902,11.02 17.832,11.953 17.832,13.105 L17.832,13.105 Z" id="Fill-5" fill="#8BC34A"></path>
                <path d="M15.75,5.031 C15.75,6.039 14.934,6.855 13.926,6.855 C12.922,6.855 12.105,6.039 12.105,5.031 C12.105,4.023 12.922,3.207 13.926,3.207 C14.934,3.207 15.75,4.023 15.75,5.031 L15.75,5.031 Z" id="Fill-6" fill="#8BC34A"></path>
                <path d="M18.875,9.457 C18.875,10.609 17.941,11.543 16.793,11.543 C15.641,11.543 14.707,10.609 14.707,9.457 C14.707,8.309 15.641,7.375 16.793,7.375 C17.941,7.375 18.875,8.309 18.875,9.457 L18.875,9.457 Z" id="Fill-7" fill="#8BC34A"></path>
                <path d="M13.145,3.988 C13.145,4.996 12.328,5.812 11.324,5.812 C10.316,5.812 9.5,4.996 9.5,3.988 C9.5,2.984 10.316,2.168 11.324,2.168 C12.328,2.168 13.145,2.984 13.145,3.988 L13.145,3.988 Z" id="Fill-8" fill="#8BC34A"></path>
                <path d="M17.312,7.895 C17.312,9.047 16.379,9.98 15.23,9.98 C14.078,9.98 13.145,9.047 13.145,7.895 C13.145,6.746 14.078,5.812 15.23,5.812 C16.379,5.812 17.312,6.746 17.312,7.895 L17.312,7.895 Z" id="Fill-9" fill="#8BC34A"></path>
                <path d="M11.582,14.406 C11.582,15.699 10.535,16.75 9.238,16.75 C7.945,16.75 6.895,15.699 6.895,14.406 C6.895,13.113 7.945,12.062 9.238,12.062 C10.535,12.062 11.582,13.113 11.582,14.406 L11.582,14.406 Z" id="Fill-10" fill="#8BC34A"></path>
                <path d="M15.75,9.457 C15.75,6.293 12.836,3.73 9.238,3.73 C5.645,3.73 2.73,6.293 2.73,9.457 C2.73,12.621 5.645,15.188 9.238,15.188 C12.836,15.188 15.75,12.621 15.75,9.457 L15.75,9.457 Z" id="Fill-11" fill="#8BC34A"></path>
                <path d="M8.457,3.73 C8.457,4.879 7.527,5.812 6.375,5.812 C5.223,5.812 4.293,4.879 4.293,3.73 C4.293,2.578 5.223,1.645 6.375,1.645 C7.527,1.645 8.457,2.578 8.457,3.73 L8.457,3.73 Z" id="Fill-12" fill="#8BC34A"></path>
                <path d="M5.855,13.887 C5.855,14.891 5.039,15.707 4.031,15.707 C3.023,15.707 2.207,14.891 2.207,13.887 C2.207,12.879 3.023,12.062 4.031,12.062 C5.039,12.062 5.855,12.879 5.855,13.887 L5.855,13.887 Z" id="Fill-13" fill="#8BC34A"></path>
                <path d="M8.457,13.363 C8.457,14.371 7.641,15.188 6.637,15.188 C5.629,15.188 4.812,14.371 4.812,13.363 C4.812,12.359 5.629,11.543 6.637,11.543 C7.641,11.543 8.457,12.359 8.457,13.363 L8.457,13.363 Z" id="Fill-14" fill="#8BC34A"></path>
                <path d="M3.77,12.324 C3.77,13.328 2.953,14.145 1.949,14.145 C0.941,14.145 0.125,13.328 0.125,12.324 C0.125,11.316 0.941,10.5 1.949,10.5 C2.953,10.5 3.77,11.316 3.77,12.324 L3.77,12.324 Z" id="Fill-15" fill="#8BC34A"></path>
                <path d="M5.332,5.031 C5.332,6.039 4.516,6.855 3.512,6.855 C2.504,6.855 1.688,6.039 1.688,5.031 C1.688,4.023 2.504,3.207 3.512,3.207 C4.516,3.207 5.332,4.023 5.332,5.031 L5.332,5.031 Z" id="Fill-16" fill="#8BC34A"></path>
                <path d="M5.332,10.238 C5.332,11.246 4.516,12.062 3.512,12.062 C2.504,12.062 1.688,11.246 1.688,10.238 C1.688,9.234 2.504,8.418 3.512,8.418 C4.516,8.418 5.332,9.234 5.332,10.238 L5.332,10.238 Z" id="Fill-17" fill="#8BC34A"></path>
                <path d="M3.77,7.113 C3.77,8.121 2.953,8.938 1.949,8.938 C0.941,8.938 0.125,8.121 0.125,7.113 C0.125,6.109 0.941,5.293 1.949,5.293 C2.953,5.293 3.77,6.109 3.77,7.113 L3.77,7.113 Z" id="Fill-18" fill="#8BC34A"></path>
                <path d="M4.812,6.332 C4.812,5.328 5.891,4.77 6.895,4.77" id="Stroke-19" stroke="#689F38" stroke-width="1.041667" stroke-linecap="round" stroke-linejoin="round"></path>
                <path d="M13.145,7.375 C13.145,6.223 12.215,5.293 11.062,5.293" id="Stroke-20" stroke="#689F38" stroke-width="1.041667" stroke-linecap="round" stroke-linejoin="round"></path>
                <path d="M13.668,12.062 C14.527,12.062 15.23,11.363 15.23,10.5" id="Stroke-21" stroke="#689F38" stroke-width="1.041667" stroke-linecap="round" stroke-linejoin="round"></path>
                <path d="M8.457,13.625 C8.457,12.906 9.301,12.062 10.02,12.062" id="Stroke-22" stroke="#689F38" stroke-width="1.041667" stroke-linecap="round" stroke-linejoin="round"></path>
                <path d="M7.938,7.895 C8.656,7.895 9.5,8.738 9.5,9.457" id="Stroke-23" stroke="#689F38" stroke-width="1.041667" stroke-linecap="round" stroke-linejoin="round"></path>
                <path d="M5.332,12.582 C4.324,12.582 3.77,11.508 3.77,10.5" id="Stroke-24" stroke="#689F38" stroke-width="1.041667" stroke-linecap="round" stroke-linejoin="round"></path>
            </g>
        </g>
    </g>
</svg>