<?xml version="1.0" encoding="UTF-8"?>
<svg width="35px" height="22px" viewBox="0 0 35 22" version="1.1" xmlns="http://www.w3.org/2000/svg" xmlns:xlink="http://www.w3.org/1999/xlink">
    <!-- Generator: sketchtool 41.2 (35397) - http://www.bohemiancoding.com/sketch -->
    <title>11540E0B-D887-4B44-946D-DB5841ED40EA</title>
    <desc>Created with sketchtool.</desc>
    <defs></defs>
    <g id="Page-1" stroke="none" stroke-width="1" fill="none" fill-rule="evenodd">
        <g id="Menu-Tablet-" transform="translate(-70.000000, -675.000000)">
            <g id="Group" transform="translate(70.000000, 61.000000)">
                <g id="opera_glasses" transform="translate(0.000000, 613.014925)">
                    <path d="M27.6215746,5.31973134 C27.6215746,7.72979851 25.6650522,9.68213433 23.2605672,9.68213433 C20.8505,9.68213433 18.8995597,7.72979851 18.8995597,5.31973134 C18.8995597,2.9110597 20.8505,0.960119403 23.2605672,0.960119403 C25.6650522,0.960119403 27.6215746,2.9110597 27.6215746,5.31973134 L27.6215746,5.31973134 Z" id="Fill-1" fill="#283593"></path>
                    <path d="M15.9885,5.31973134 C15.9885,7.72979851 14.0375597,9.68213433 11.6274925,9.68213433 C9.22300746,9.68213433 7.26648507,7.72979851 7.26648507,5.31973134 C7.26648507,2.9110597 9.22300746,0.960119403 11.6274925,0.960119403 C14.0375597,0.960119403 15.9885,2.9110597 15.9885,5.31973134 L15.9885,5.31973134 Z" id="Fill-2" fill="#283593"></path>
                    <path d="M33.2148284,11.8619403 L22.0939104,14.0417463 L12.8653209,14.0417463 L1.74440299,11.8619403 L4.86758209,6.12215672 C5.66861194,4.73779851 7.12414179,3.86559701 8.72201493,3.86559701 L26.3125746,3.86559701 C27.9104478,3.86559701 29.3659776,4.73779851 30.1614254,6.12215672 L33.2148284,11.8619403 Z" id="Fill-3" fill="#283593"></path>
                    <path d="M34.1623881,15.4972761 C34.1623881,19.509403 30.9080299,22.7637612 26.8917164,22.7637612 C22.8795896,22.7637612 19.6238358,19.509403 19.6238358,15.4972761 C19.6238358,11.4809627 22.8795896,8.22660448 26.8917164,8.22660448 C30.9080299,8.22660448 34.1623881,11.4809627 34.1623881,15.4972761 L34.1623881,15.4972761 Z" id="Fill-4" fill="#283593"></path>
                    <path d="M15.2642239,15.4972761 C15.2642239,19.509403 12.0084701,22.7637612 7.99634328,22.7637612 C3.98002985,22.7637612 0.725671642,19.509403 0.725671642,15.4972761 C0.725671642,11.4809627 3.98002985,8.22660448 7.99634328,8.22660448 C12.0084701,8.22660448 15.2642239,11.4809627 15.2642239,15.4972761 L15.2642239,15.4972761 Z" id="Fill-5" fill="#283593"></path>
                    <path d="M21.0793657,14.0417463 C21.0793657,16.0485075 19.450791,17.6784776 17.4440299,17.6784776 C15.4372687,17.6784776 13.808694,16.0485075 13.808694,14.0417463 C13.808694,12.0363806 15.4372687,10.4064104 17.4440299,10.4064104 C19.450791,10.4064104 21.0793657,12.0363806 21.0793657,14.0417463 L21.0793657,14.0417463 Z" id="Fill-6" fill="#283593"></path>
                    <path d="M18.8995597,14.0417463 C18.8995597,14.8441716 18.2450597,15.4972761 17.4440299,15.4972761 C16.643,15.4972761 15.9885,14.8441716 15.9885,14.0417463 C15.9885,13.2407164 16.643,12.5876119 17.4440299,12.5876119 C18.2450597,12.5876119 18.8995597,13.2407164 18.8995597,14.0417463 L18.8995597,14.0417463 Z" id="Fill-7" fill="#5C6BC0"></path>
                    <path d="M31.9825821,15.4972761 C31.9825821,18.3050672 29.703694,20.5839552 26.8917164,20.5839552 C24.0839254,20.5839552 21.8050373,18.3050672 21.8050373,15.4972761 C21.8050373,12.6852985 24.0839254,10.4064104 26.8917164,10.4064104 C29.703694,10.4064104 31.9825821,12.6852985 31.9825821,15.4972761 L31.9825821,15.4972761 Z" id="Fill-8" fill="#2196F3"></path>
                    <path d="M13.0830224,15.4972761 C13.0830224,18.3050672 10.8041343,20.5839552 7.99634328,20.5839552 C5.18436567,20.5839552 2.90547761,18.3050672 2.90547761,15.4972761 C2.90547761,12.6852985 5.18436567,10.4064104 7.99634328,10.4064104 C10.8041343,10.4064104 13.0830224,12.6852985 13.0830224,15.4972761 L13.0830224,15.4972761 Z" id="Fill-9" fill="#2196F3"></path>
                    <path d="M29.5836791,13.8240448 C28.8538209,13.0230149 27.9104478,12.5876119 26.8917164,12.5876119 C25.8771716,12.5876119 24.8570448,13.0230149 24.2039403,13.8240448 C23.9150672,14.1129179 23.9862388,14.5497164 24.2751119,14.8441716 C24.5681716,15.1330448 25.0049701,15.0618731 25.2938433,14.7674179 C26.1660448,13.8240448 27.6927463,13.8240448 28.5649478,14.7674179 C28.7114776,14.9153433 28.9291791,14.9851194 29.0715224,14.9851194 C29.2194478,14.9851194 29.4371493,14.9153433 29.5836791,14.7674179 C29.8725522,14.5497164 29.8725522,14.1129179 29.5836791,13.8240448 L29.5836791,13.8240448 Z" id="Fill-10" fill="#90CAF9"></path>
                    <path d="M7.99634328,12.5876119 C6.97761194,12.5876119 5.9588806,13.0230149 5.3043806,13.8240448 C5.01550746,14.1129179 5.0866791,14.5497164 5.37973881,14.8441716 C5.66861194,15.1330448 6.10541045,15.0618731 6.39428358,14.7674179 C7.26648507,13.8240448 8.79318657,13.8240448 9.66538806,14.7674179 C9.81191791,14.9153433 10.0310149,14.9851194 10.1775448,14.9851194 C10.3198881,14.9851194 10.5375896,14.9153433 10.6841194,14.7674179 C10.9729925,14.4785448 10.9729925,14.0417463 10.755291,13.7528731 C10.0310149,13.0230149 9.01088806,12.5876119 7.99634328,12.5876119 L7.99634328,12.5876119 Z" id="Fill-11" fill="#90CAF9"></path>
                </g>
            </g>
        </g>
    </g>
</svg>