<?xml version="1.0" encoding="UTF-8"?>
<svg width="25px" height="22px" viewBox="0 0 25 22" version="1.1" xmlns="http://www.w3.org/2000/svg" xmlns:xlink="http://www.w3.org/1999/xlink">
    <!-- Generator: sketchtool 41.2 (35397) - http://www.bohemiancoding.com/sketch -->
    <title>7EC9BE60-5F56-4A73-88F4-46F9F253125D</title>
    <desc>Created with sketchtool.</desc>
    <defs></defs>
    <g id="Page-1" stroke="none" stroke-width="1" fill="none" fill-rule="evenodd">
        <g id="Search-results-(List-View)-_Type-DropDown" transform="translate(-1320.000000, -719.000000)" stroke="#9B9B9B" fill="#9B9B9B">
            <g id="call_buttom" transform="translate(666.000000, 261.000000)">
                <path d="M665.354341,478.56422 C665.638213,478.844037 666.019811,479 666.420024,479 C666.815583,479 667.206488,478.83945 667.485707,478.56422 L675.848291,470.321101 C677.118734,469.068807 677.81678,467.40367 677.821433,465.637615 C677.821433,463.866972 677.123388,462.201835 675.852945,460.949541 C674.582502,459.697248 672.897886,459.009174 671.101582,459.009174 C669.337854,459.009174 667.676506,459.674312 666.41537,460.885321 C665.149581,459.669725 663.483579,459 661.715197,459 C659.923547,459 658.238931,459.688073 656.968488,460.93578 C655.698045,462.188073 655,463.853211 655,465.623853 C655,467.389908 655.702699,469.055046 656.973142,470.307339 L665.354341,478.56422 Z M657.778221,461.733945 C658.829943,460.697248 660.230687,460.123853 661.719851,460.123853 C663.209015,460.123853 664.614413,460.697248 665.670788,461.738532 L666.015158,462.077982 C666.122191,462.183486 666.266454,462.243119 666.420024,462.243119 L666.420024,462.243119 C666.56894,462.243119 666.717857,462.183486 666.82489,462.077982 L667.159952,461.747706 C668.216328,460.706422 669.617072,460.133028 671.11089,460.133028 C672.600053,460.133028 674.000798,460.706422 675.05252,461.743119 C676.108895,462.784404 676.685946,464.165138 676.685946,465.633028 C676.685946,467.100917 676.104241,468.481651 675.047866,469.522936 L666.680628,477.770642 C666.545672,477.90367 666.299029,477.90367 666.15942,477.770642 L657.782875,469.513761 C656.726499,468.472477 656.144795,467.091743 656.144795,465.623853 C656.144795,464.155963 656.726499,462.775229 657.778221,461.733945 Z" id="heart"></path>
            </g>
        </g>
    </g>
</svg>